<?xml version="1.0" encoding="utf-8"?>
<!-- Generator: Adobe Illustrator 16.0.0, SVG Export Plug-In . SVG Version: 6.00 Build 0)  -->
<!DOCTYPE svg PUBLIC "-//W3C//DTD SVG 1.1//EN" "http://www.w3.org/Graphics/SVG/1.1/DTD/svg11.dtd">
<svg version="1.1" id="Layer_1" xmlns="http://www.w3.org/2000/svg" xmlns:xlink="http://www.w3.org/1999/xlink" x="0px" y="0px"
	 width="364.8px" height="1308.5px" viewBox="0 0 364.8 1308.5" enable-background="new 0 0 364.8 1308.5" xml:space="preserve">
<g>
	<g>
		<g>
			<g>
				<polygon fill="#FFFFFF" points="368.453,1182.503 341.331,1134.177 341.303,1134.127 341.252,1134.098 289.694,1105.706 
					279.621,1080.91 269.785,1055.817 269.683,1055.554 269.408,1055.483 241.637,1048.294 241.676,1000.566 246.572,974.264 
					246.647,973.859 246.308,973.625 213.229,950.831 213.092,950.736 212.926,950.718 188.005,947.96 163.908,928.979 
					163.813,928.904 163.698,928.865 96.169,905.93 96.027,905.565 100.671,863.374 100.791,862.284 100.049,861.452 69.215,826.84 
					73.601,804.484 73.893,803.002 72.775,801.953 47.333,778.088 44.036,714.53 68.295,665.354 93.429,631.727 121.346,610.276 
					122.704,609.233 122.748,607.495 123.797,566.236 140.168,518.605 140.557,517.472 140.238,516.286 129.98,478.271 
					124.585,442.539 149.352,420.499 151.252,418.806 150.703,416.29 145.487,392.404 151.095,334.872 151.194,333.848 
					150.838,332.847 143.173,311.309 151.282,268.919 151.69,266.79 150.365,265.027 128.225,235.577 119.931,211.23 
					128.94,165.287 129.209,163.917 128.754,162.556 111.05,109.449 111.452,0 99.512,0 99.917,110.346 99.92,111.404 
					100.212,112.314 118.155,164.645 109.496,210.598 109.236,211.983 109.686,213.276 118.881,239.633 119.154,240.417 
					119.634,241.046 141.178,269.267 133.548,310.807 133.311,312.101 133.749,313.304 141.67,335.054 136.521,392.253 
					136.455,392.971 136.606,393.64 141.595,415.707 117.207,437.735 115.486,439.289 115.845,441.547 121.899,479.742 
					121.938,479.988 121.997,480.199 132.281,517.224 116.471,564.347 116.282,564.91 116.271,565.478 115.546,605.625 
					88.789,626.499 88.4,626.802 88.123,627.178 62.772,661.621 62.582,661.879 62.455,662.144 38.07,712.509 37.71,713.251 
					37.757,714.053 41.639,779.556 41.708,780.725 41.741,780.754 33.141,815.293 20.15,828.763 19.941,828.979 19.889,829.273 
					15.365,854.755 15.299,855.127 15.503,855.442 29.417,876.939 8.663,969.393 8.621,969.581 8.664,969.766 22.727,1030.286 
					3.956,1048.197 3.65,1048.49 3.74,1048.902 23.849,1140.786 23.889,1140.97 24.014,1141.1 54.202,1172.584 40.874,1231.641 
					54.811,1172.56 54.846,1172.408 54.737,1172.291 25.104,1140.328 5.302,1048.996 24.122,1031.105 24.443,1030.801 
					24.343,1030.366 10.342,969.575 31.318,876.968 31.405,876.586 31.192,876.257 17.313,854.721 21.768,829.914 34.772,816.494 
					34.96,816.303 35.025,816.041 43.478,782.361 67.92,804.95 63.739,827.121 63.494,828.428 64.372,829.4 95.617,863.957 
					91.338,905.632 91.28,906.21 91.489,906.733 105.011,940.631 91.837,997.804 71.294,1022.998 70.414,1024.078 71.197,1025.214 
					83.09,1042.46 83.455,1042.988 84.059,1043.16 117.646,1052.749 121.248,1079.874 121.271,1080.051 121.33,1080.21 
					136.721,1121.391 119.885,1149.09 119.689,1149.412 119.702,1149.775 122.032,1217.858 113.942,1237.746 113.842,1237.995 
					113.932,1238.239 140.059,1308.982 115.316,1238.027 123.447,1218.266 123.505,1218.128 123.501,1217.969 122.204,1150.087 
					139.405,1122.25 139.751,1121.689 139.521,1121.06 124.27,1079.315 120.753,1051.258 120.621,1050.198 119.584,1049.894 
					85.66,1039.94 75.03,1024.28 95.174,999.941 95.462,999.595 95.57,999.142 109.431,940.956 109.588,940.297 109.336,939.653 
					96.89,907.776 163.134,930.162 187.314,949.151 187.468,949.271 187.661,949.293 212.619,952.018 245.251,974.438 
					240.232,1000.4 240,1000.457 240,1000.514 240,1048.742 240,1049.19 240.676,1049.302 268.735,1056.487 278.565,1081.301 
					288.783,1106.262 288.869,1106.434 289.036,1106.52 341.004,1134.427 				"/>
			</g>
		</g>
	</g>
</g>
</svg>
