<?xml version="1.0" encoding="utf-8"?>
<!-- Generator: Adobe Illustrator 16.0.0, SVG Export Plug-In . SVG Version: 6.00 Build 0)  -->
<!DOCTYPE svg PUBLIC "-//W3C//DTD SVG 1.1//EN" "http://www.w3.org/Graphics/SVG/1.1/DTD/svg11.dtd">
<svg version="1.1" id="Layer_1" xmlns="http://www.w3.org/2000/svg" xmlns:xlink="http://www.w3.org/1999/xlink" x="0px" y="0px"
	 width="407.472px" height="1320.019px" viewBox="0 0 407.472 1320.019" enable-background="new 0 0 407.472 1320.019"
	 xml:space="preserve">
<g>
	<g>
		<g>
			<g>
				<path fill="#FFFFFF" d="M373.791,872.679V816.23v-0.18l-0.312-0.152l-7.85-12.751l3.936-15.845l0.013-0.161l-0.057-0.16
					l-6.249-23.323l17.1,8.344l13.199,18.273l-12.705-18.73l-0.044-0.064l-0.079-0.043l-17.984-9.445l-14.238-27.096l-4.152-17.532
					l-0.111-0.472l-0.486-0.021l-57.994-2.301l-10.036-23.267l-0.057-0.133l-0.108-0.095l-8.123-7.145l-2.893-21.463l13.156-11.655
					l0.222-0.197l-0.149-0.26l-10.693-18.695l0.109-56.011l39.511-46.362l3.97,0.63l-1.172,41.797l-21.429,22.068l-0.403,0.416
					l0.373,0.443l25.864,30.589l0.13,0.154l0.191,0.051l25.807,6.777l23.085,18.479l0.212,54.307l0.213-54.458v-0.148l-0.016-0.095
					l-23.016-18.904l-0.053-0.063l-0.088-0.029l-25.623-7.047L289.4,594.258l21.201-21.831l0.174-0.179l0.008-0.249l1.174-41.879
					l15.155,2.405l14.173,20.219l23.352,45.753l0.022,0.043l0.037,0.029l42.776,33.88l-42.466-34.192l-22.957-45.939l-0.014-0.027
					l-0.019-0.027l-14.25-20.442l-0.113-0.163l-0.197-0.032l-15.472-2.498l0.269-6.235l0.121-0.034v-0.241l-0.079-38.768
					l27.007-51.288l0.211-0.442l-0.36-0.36l-21.338-21.997l75.757,40.553l-81.154-46.115l-20.398-21.034l-6.458-17.223l-0.038-0.099
					l-0.062-0.085l-17.578-23.369l-1.568-4.707l-0.227-0.68l-0.616-0.418l-46.182-31.35l-4.374-4.725
					c-1.529-1.641-3.031-3.308-4.592-4.919c-1.467-1.545-2.938-3.086-4.417-4.619l-0.563-0.675l-24.944-29.909l2.598-37.229
					l0.068-0.975l-0.597-0.802l-22.318-29.985l-0.312-0.419l-0.463-0.288l-31.496-19.612l-4.744-23.111l-0.234-1.14l-0.956-0.708
					L99.806,129.7l0.054-0.128l0.01-1.591l0.107-17.896l7.279-10.487l0.91-1.311l0.338-1.657l10.031-49.069l0.667-3.263
					l-1.856-2.886L90.716,0L76.3,9.396l25.296,38.306l-8.488,44.251l-7.552,11.164l-1.399,2.069l0.015,2.403l0.113,18.894
					l-3.74,9.212l-0.985,2.43l0.646,2.445l7.384,27.92l1.082,30.158l0.049,1.38l0.499,1.193l14.25,34.152l-7.691,41.959
					l-0.151,0.828l0.039,0.759l4.195,81.548l0.129,2.503l1.342,1.327l-5.62,18.89L81.65,401.875l-0.474,0.629l0.002,0.776
					l0.029,12.585l-27.169,31.388l-0.673,0.778l0.159,1.007l6.628,41.542l0.163,40.154v0.088l-0.062,0.079l8.963,104.622
					l-14.959,25.031l-0.391,0.641l0.202,0.71l6.83,23.481l-13.493,28.049l-23.467,30.512l-0.403,0.523l0.114,0.643l3.168,17.864
					L0.448,794.034L0,794.563l0.163,0.666l7.953,32.424l0.061,0.247l0.146,0.201l22.043,30.164l-2.218,18.54l-0.067,0.567
					l0.406,0.392l16.256,15.72l0.228,0.22l0.305,0.065l11.931,2.527l-2.512,11.005l-0.155,0.676l0.562,0.398l17.64,12.473
					l0.127,0.091l0.145,0.045l9.282,3.011l-0.229,11.809v0.278l0.406,0.229l2.284,3.292l-0.081,0.157l0.659,0.58l10.439,15.655
					l0.367,75.282v0.401l0.151,0.195l10.506,6.281c-1.155,2.587-2.374,5.163-3.492,7.765c-2.455,5.605-4.918,11.217-7.26,16.873
					c2.757-5.467,5.403-10.979,8.045-16.497c1.224-2.512,2.389-5.047,3.577-7.574l12.458,7.388l-12.149-8.058
					c0.009-0.016,0.016-0.034,0.025-0.053l3.898-8.31l0.024-0.051l0.015-0.063l6.7-26.914l6.63-26.935l0.108-0.439l-0.333-0.305
					l-37.062-33.986l-3.463-5.467l0.106-12.239v-0.698l-0.747-0.215l-10.079-3.218l-16.916-12.064l1.711-7.38l15.648,1.562
					l8.89,9.728l-4.72,8.346l4.925-8.118l5.012,5.483l11.827,22.523l0.04,0.075l0.064,0.053l15.75,12.733l0.021,0.016l0.02,0.01
					l26.185,13.687l-25.93-14.104l-15.454-12.924l-11.745-22.54l-0.027-0.051l-0.04-0.045l-5.219-5.746l8.316-13.706l20.539-13.774
					l0.161-0.106l0.094-0.188l12.962-25.514l6.712,23.81l-8.556,8.296l-0.273,0.265l0.095,0.37l4.411,17.145l0.052,0.199
					l0.156,0.133l35.334,30.221l10.392,33.656l0.012,0.04l0.017,0.034l13.343,28.59l1.202,16.013l1.301,16.09l-0.785-16.122
					l-0.878-16.117l-0.004-0.075l-0.034-0.075l-13.025-28.771l-10.399-33.802l-0.053-0.174l-0.138-0.118l-35.285-30.241
					l-4.249-16.583l8.513-8.329l0.27-0.265l-0.104-0.359l-7.308-25.243l0.072-0.143l0.086-0.168l0.007-0.195l0.62-15.401
					l17.215,4.821l5.959,9.656l0.286,18.501l0.285-18.537V854.2l-0.181-0.03l-5.71-9.399l18.277,5.13l34.461,37.703l-34.055-38.231
					l-0.068-0.072l-0.097-0.026l-19.303-5.683l-16.137-26.942l1.684-41.898l37.062-39.076l10.095,30.713l0.031,0.098l0.06,0.084
					l25.331,35.972l-0.269,13.691v0.382l0.602,0.193l27.802,16.135l3.53,5.652l-9,38.604l-0.057,0.314l0.004,0.289l-1.387,76.776
					l-7.576,44.347l-0.14,0.819l0.429,0.685l32.419,51.907l0.825,10.267l-8.183,16.919l-0.134,0.273l0.047,0.297l4.873,31.083
					l-16.859,18.519l-7.135,1.356l-0.503,0.097l-0.134,0.489l-2.241,8.148l-39.157,39.801l-0.196,0.199l0.003,0.241l0.165,11.615
					l1.139-11.283l39.32-39.604l0.146-0.145l0.056-0.201l2.202-7.844l6.921-1.279l0.271-0.05l0.191-0.207l17.424-18.963l0.289-0.315
					l-0.065-0.427l-4.749-31.226l8.25-16.86l0.12-0.245l-0.021-0.276l-0.501-6.594l14.519,23.247l-9.703,68.068l-0.017,0.111
					l0.004,0.098l4.54,125.956l-21.438,46.417l22.09-46.202l0.033-0.071l-0.002-0.084l-2.809-123.384l15.714,4.104l0.04,0.01
					l0.036,0.006l8.259,1.282l1.345,10.1l0.036,0.272l0.205,0.177l10.289,9.041l-0.009,63.182v0.182l0.267,0.142l16.363,21.084
					l-8.403,47.186l9.163-47.212l0.039-0.146l-0.088-0.123l-16.086-21.289l0.024-63.318v-0.312l-0.108-0.207l-10.367-9.111
					l-1.295-10.396l-0.055-0.554l-0.545-0.088l-8.761-1.409l-16.103-4.269l-0.021-0.924l10.594-68.436l0.088-0.564l-0.307-0.505
					l-18.119-29.8l-2.287-30.164l-0.014-0.188l-0.078-0.176l-10.102-23.047l21.951-30.471l11.171-15.506l11.125-15.547l0.396-0.555
					l-0.216-0.653l-6.275-19.205l0.135-16.462v-0.419l-0.326-0.356l-21.844-34.038l33.447,20.869l5.945,21.076l0.027,0.119
					l0.07,0.095l17.202,22.478l0.651,71.678l0.652-71.837v-0.153l-0.281-0.127l-17.021-22.503l-4.279-14.606h20.34l10.482,21.662
					l0.041-0.027l0.053,0.005l19.951,22.208l-18.926-23.016l-10.622-21.962l-0.175-0.149h-0.402h-21.104l-1.44-5.318l-0.068-0.354
					l-0.214-0.188l-36.033-22.506l-0.77-1.216l-7.669-33.28l1.208-4.897l12.545-14.172l0.809-0.913l0.025-1.261l0.648-32.909
					l15.37-27.279l23.53,57.004l-2.133,30.483l3.418-30.531l0.018-0.149l-0.063-0.152l-23.971-58.073l0.595-1.054l-0.514-1.592
					l-16.423-51.032l0.157-9.407l7.877,6.928l4.806,33.186l-4.429-32.854l6.91,6.077l10.14,23.505l0.159,0.37l0.402,0.016
					l57.912,2.3l4.059,17.138l0.019,0.079l0.038,0.071l14.336,27.282l6.542,24.448l-4.015,15.944l-0.066,0.26l0.359,0.229
					l8.006,12.824v56.362v0.1l-0.192,0.089l16.567,52.695l-0.049,0.019l-0.019,0.015l9.397,16.383l-8.906-16.527L373.791,872.679z
					 M123.676,975.802l-6.472,26.508l-6.495,26.907l-3.677,8.212l-9.814-6.526l0.202-75.168v-0.258l-0.171-0.221l-6.396-9.85
					L123.676,975.802z M307.468,528.403l3.367-3.952l-0.125,4.475L307.468,528.403z M284.246,366.556l6.428,17.289l0.055,0.146
					l0.109,0.112l17.07,17.542l-25.156-14.295l-8.072-24.561l-5.184-15.554L284.246,366.556z M211.355,303.78l4.521,4.984
					l0.197,0.217l0.243,0.162l46.139,30.658l8.536,24.252l8.887,24.92l0.217,0.607l0.533,0.285l33.014,17.672l24.162,24.83
					l-26.746,51.012l0.037,0.147v0.165l-0.101,38.692l-4.945,5.782l-15.931-2.567l-33.837-16.646l-24.944-27.759l-0.029-0.03
					l-0.033-0.026l-22.283-19.07l-0.289-0.718l0.032-57.605v-0.334l0.081-0.327l-8.016-21.918l0.583-22.079l0.296-11.225
					l0.029-0.702l0.014-0.311l0.005-0.019l0.007-0.087l0.015-0.175l0.106-1.399l0.213-2.8l0.425-5.598l2.999-39.549
					c0.455,0.517,0.907,1.039,1.363,1.554C208.326,300.471,209.855,302.112,211.355,303.78z M102.613,166.353l-0.217-0.862
					l-6.604-26.237l1.473-3.506l20.092,14.651l4.949,23.148l0.27,1.262l1.081,0.661l32.31,19.754l21.645,28.59l-2.294,37.248
					l-0.063,1.019l0.646,0.763l25.237,29.764l-2.965,43.853l-0.379,5.601l-0.189,2.801l-0.095,1.4l-0.026,0.459l-0.005,0.351
					l-0.012,0.702l-0.178,11.227l-0.357,22.455l-0.007,0.388l0.132,0.348l8.6,21.899l0.521,57.352v0.111l-0.272,0.096l12.842,99.551
					l-10.082-13.996l0.021-9.521l-0.004-2.34l-1.836-1.56l-13.319-11.372l-7.789-43.205l-0.138-0.761l-0.38-0.749l-29.077-57.272
					l0.097-16.221l0.015-2.446l-1.77-1.791l-42.004-42.509l-3.089-78.323l8.459-43.235l0.397-2.03l-0.805-1.999l-14.098-34.958
					l-0.712-29.767L102.613,166.353z M125.043,854.938l-13.42,26.806l-20.005,14.328l-0.079,0.057l-0.042,0.073l-7.888,13.95
					l-8.779-9.667l-0.125-0.137l-0.186-0.019l-15.702-1.619l0.697-2.989l0.244-1.048l-1.055-0.229l-12.662-2.742l-15.555-15.181
					l2.29-18.437l0.058-0.462l-0.275-0.381l-22.027-30.433l-7.583-31.545l26.505-30.934l0.44-0.514l-0.117-0.673l-3.089-17.896
					l23.307-30.019l0.098-0.128l0.074-0.149l13.969-28.704l0.275-0.564l-0.174-0.61l-6.692-23.397l14.972-24.823l0.293-0.487
					l-0.047-0.574l-3.084-37.897l3.524,5.94l0.087,0.147l0.147,0.087l45.993,27.112l-5.015,39.803l-7.367,15.672l-0.069,0.146
					l0.012,0.162l7.916,109.252l-0.052-0.008l-2.317,16.22l-0.019,0.135l0.037,0.13l6.952,24.563l0.098,0.347l0.341,0.096
					l5.636,1.577L125.043,854.938z M120.642,836.572l-6.819-24.094l2.063-14.439l10.525,17.054l-0.788,22.946L120.642,836.572z
					 M143.89,843.417l-16.428-4.837l0.821-20.451L143.89,843.417z M116.051,796.123l-7.812-109.082l7.354-15.61l0.042-0.09
					l0.013-0.099l5.114-40.318l0.053-0.421l-0.366-0.215L74.263,603.01l-4.834-8.165l-5.297-64.191l0.021-40.24v-0.158l0.046-0.166
					l-6.202-40.71l27.23-31.148l0.571-0.644l0.006-0.865l0.03-12.653l13.942-18.352l0.256-0.337l0.126-0.416l5.083-16.803
					l39.029,38.563l0.09,15.095l0.009,1.462l0.645,1.233l30.079,57.533l8.49,44.082l0.359,1.86l1.407,1.173l12.761,10.637
					l-21.462,18.283l-0.532,0.453l-0.093,0.683l-3.629,26.661l-0.108,0.789l0.518,0.592l11.789,13.488l-5.292,28.232l-8.671,19.782
					l-0.119,0.271l-0.011,0.286l-1.497,39.658l-7.282,20.902l-0.119,0.339l0.063,0.347l4.125,22.763l-37.674,40.192l-0.29,0.309
					l-0.014,0.416l-1.348,39.267L116.051,796.123z M231.92,832.105l-0.087-0.143l-0.145-0.082l-27.775-16.033l-0.297-13.521v-0.213
					l0.175-0.174l-25.509-36.068l-10.209-31.313l0.425-0.41l-0.093-0.638l-4.031-23.066l7.364-20.733l0.073-0.196l0.011-0.216
					l1.727-39.558l8.747-19.641l0.073-0.163l0.036-0.184l5.647-29.182l0.155-0.798l-0.538-0.621l-11.72-13.571l3.576-25.168
					l18.958-15.959l0.026,4.357l0.01,1.662l0.947,1.292l21.778,29.688l1.991,15.266l-26.018,36.587l-0.416,0.585l0.44,0.547
					l9.263,11.506l0.748,59.055l0.753-59.325l0.003-0.25l-0.163-0.214l-8.687-11.369l26.152-36.178l0.254-0.353l-0.054-0.44
					l-1.412-11.523l27.309,37.23l-0.315,66.003l-0.004,0.703l0.004,0.01l-21.365,16.514l-0.4,0.311l-0.193,0.459l-17.516,41.752
					l-0.347,0.826l0.441,0.77l18.499,32.203l4.93,18.928l2.495,9.578l1.631,6.899l-4.499,19.228L231.92,832.105z M248.972,858.76
					l0.062,0.262l0.142,0.22l24.545,37.593l0.27,16.261v0.229l-0.161,0.212l6.2,18.746l-10.708,15.027l-11.13,15.558l-22.213,31.114
					l-0.398,0.547l0.268,0.609l10.403,23.443l2.075,25.826l-27.682-45.526l7.998-43.653l0.029-0.166l0.006-0.197l2.307-76.601
					l7.939-32.186l5.773,9.428l0.082,0.133l0.131,0.081l3.922,2.446L248.972,858.76z M248.403,856.344l-2.661-1.66l-6.373-10.41
					l3.17-12.854L248.403,856.344z M252.794,767.684l-0.441,0.809l-0.007,0.879l-0.253,32.614l-10.311,11.93l-0.951-4.108
					l-2.451-9.588l-4.9-19.178l-0.057-0.22l-0.115-0.204l-18.021-31.705l17.161-40.389l19.966-15.287l15.624,46.619L252.794,767.684
					z M259.485,676.926l0.935-55.766l0.025-1.459l-0.881-1.231l-37.898-52.984l-12.438-101.496l21.215,18.062l25.054,27.744
					l0.073,0.082l0.098,0.048l34.035,16.641l0.07,0.035l0.076,0.012l15.391,2.443l-38.877,46.067l-0.051,0.147v0.189v56.312v0.11
					l0.036,0.094l10.663,18.492l-12.934,11.684l-0.113,0.101l0.021,0.146l3.067,21.183L259.485,676.926z"/>
			</g>
		</g>
	</g>
</g>
</svg>
