<?xml version="1.0" encoding="utf-8"?>
<!-- Generator: Adobe Illustrator 16.0.0, SVG Export Plug-In . SVG Version: 6.00 Build 0)  -->
<!DOCTYPE svg PUBLIC "-//W3C//DTD SVG 1.1//EN" "http://www.w3.org/Graphics/SVG/1.1/DTD/svg11.dtd">
<svg version="1.1" id="Layer_1" xmlns="http://www.w3.org/2000/svg" xmlns:xlink="http://www.w3.org/1999/xlink" x="0px" y="0px"
	 width="470.5px" height="1047.811px" viewBox="0 0 470.5 1047.811" enable-background="new 0 0 470.5 1047.811"
	 xml:space="preserve">
<g>
	<g>
		<g>
			<g>
				<path fill="#C6C8CA" d="M470.541,781.582l-0.237-0.346l-8.495-12.332l-0.071-0.105l-0.106-0.076l-18.581-13.076l0.047-19.244
					l6.495-10.15l7.067-8.473l0.177-0.242v-0.324v-8.525v-0.566l-0.479-0.248l-9.746-4.682l-5.602-6.203l-2.862-3.168l-0.713-0.791
					c-0.302-0.332-0.516-0.527-0.777-0.797l-1.507-1.516l-11.955-12.014l-7.48-13.164l-0.068-0.119l-0.101-0.102l-8.884-9.178
					l0.274-11.867v-0.217l-0.33-0.207l-10.228-24.762l-5.123-12.438l-5.786-11.904l-0.285-15.832v-0.703l-0.303-0.381l-9.188-5.975
					l3.65-12.66l0.185-0.529l-0.48-0.227l-10.137-4.613l-3.234-12.021l-0.102-0.395l-0.402-0.07l-18.191-3.174l-17.988-11.219
					l-0.106-10.553v-0.619l-0.307-0.443l-13.758-13.788l-0.011-10.726v-0.842l-0.6-0.473l-11.195-7.539l-17.659-15.904
					l-8.104-13.604l0.046-16.03l10.152-14.686l0.153-0.22l0.084-0.263l4.774-15.144l0.095-0.298l-0.012-0.322l-0.785-21.794
					l-0.098-2.724l-0.13-2.745l-0.259-5.446l-0.49-10.318l7.329-12.755l0.372-0.649l-0.154-0.743l-3.634-17.482l5.567-17.48
					l0.254-0.796l-0.376-0.757l-2.517-5.06l0.05-29.619l15.708-21.735l0.516-0.713l0.026-0.037l0.114-0.142l0.275-0.343l1.102-1.372
					l2.202-2.743l2.203-2.743l1.101-1.372l0.275-0.343l0.137-0.172l0.068-0.085l0.242-0.319l0.502-0.723l8.031-11.556l0.238-0.344
					l0.173-0.398l8.483-19.708l7.371-14.039l0.354-0.94v-1.081l0.189-23.739l34.824-33.717l1.372-1.295l0.021-1.875l0.146-79.57
					l0.006-1.095l-0.503-0.988l-17.68-34.576l-4.575-19.361l-9.07,2.159l4.771,19.884l0.132,0.552l0.253,0.49l17.558,34.045
					l0.133,76.601l-34.596,33.801l-1.317,1.285l0.005,1.823l0.042,24.51l-7.048,13.267l-0.088,0.167l-0.068,0.161l-8.324,19.521
					l-7.747,11.228l-0.434,0.627l-0.029,0.037l-0.136,0.171l-0.273,0.344l-1.098,1.375l-2.192,2.751l-2.192,2.75l-1.098,1.375
					l-0.274,0.344l-0.136,0.172l-0.26,0.346l-0.513,0.715l-16.405,22.867l-0.782,1.089l0.002,1.326l0.058,33.89l-7.644,12.278
					l-9.122,0.016l-1.526,0.002l-1.129,1c-5.029,4.454-10.011,8.913-14.957,13.495l-3.701,3.494l-1.854,1.829l-0.951,0.992
					c-0.336,0.371-0.64,0.683-1.122,1.329l-0.23,0.342l-0.174,0.298l-0.086,0.165c-0.023,0.046-0.053,0.098-0.126,0.277
					c-0.059,0.145-0.11,0.294-0.156,0.445l-0.06,0.227c-0.027,0.134-0.017,0.022-0.069,0.359c-0.015,0.106-0.006,0.223-0.011,0.334
					c-0.004,0.01-0.006,0.021-0.01,0.03c-0.07,0.265-0.184,0.626-0.301,0.981c-0.239,0.722-0.512,1.484-0.79,2.245l-1.751,4.609
					l-3.693,9.253l-1.892,4.619l-0.237,0.575l-0.166,0.42l-0.109,0.292l-0.438,1.174l-0.875,2.347l-6.981,18.779l-0.226,0.667v0.697
					l0.002,15.156l-0.009,1.031l0.499,0.883l6.042,10.537l-5.208,4.571l-0.162,0.143l-0.139,0.15l-9.281,10.159l-13.484,0.023
					l-2.59,0.004l-0.921,2.408l-3.798,9.929l-24.896,0.042l-1.146,0.002l-0.935,0.64l-15.999,10.949l-4,2.737l-0.915,0.62
					l-1.02,0.655l-2.039,1.311l-8.154,5.238l-8.156,5.239l-4.078,2.62l-4.06,2.406l-16.673,9.89l-1.752,1.04l0.004,2.025
					l0.085,49.741l-6.792,24.801l-3.346,4.465l-20.485,0.166h-0.392l-0.214,0.166l-16.034,24.449L24.09,624.809l-0.055,0.021
					l-0.046,0.043L0.312,652.344l-0.275,0.318l0.151,0.393l4.737,12.52l0.175,0.658h0.482h9.144l4.522,4.818v9.219v0.27l0.102,0.199
					l8.473,9.457l12.021,15.887l-0.123,57.547v0.076l0.13,0.072l5.743,25.576l0.075,0.207l0.168,0.145l13.148,12.197l5.634,15.945
					l0.034,0.088l0.053,0.078L76.064,834.1l12.478,21.6l-0.199,36.758v0.139l0.261,0.129l7.065,15.777l-8.278,12.965l0.008,0.029
					l-0.005,0.033l-5.677,11.367l-0.079,0.17l0.019,0.189l2.837,29.242l-2.81,10.307l-0.061,0.219l0.091,0.209l5.632,13.137
					l0.003,10.123l-5.604,10.275l-0.081,0.15l0.003,0.16l0.646,40.73l0.643-40.562l5.459-10.281l-0.071-0.145v-0.164v-10.42v-0.135
					l0.099-0.123l-5.518-13.051l2.822-10.201l0.051-0.115l-0.003-0.121l-2.814-29.174l5.588-11.166l8.511-13.232l0.193-0.301
					l-0.145-0.324l-7.277-15.979l-0.229-36.801v-0.184l0.142-0.158l-12.67-21.785l0.044-0.025l0.014-0.021l-11.297-16.031
					l-5.644-16.016l-0.051-0.158l-0.121-0.115l-13.103-12.17l-5.781-25.295l-0.153-57.707v-0.236l0.021-0.186l-12.23-16.107
					l0.023-0.021l0.02-0.021l-8.306-9.273v-9.205v-0.254l-0.18-0.195l-4.743-5.414l-0.219,0.02h-0.33h-8.99l-4.408-11.74
					l23.361-27.23l35-27.49l0.094-0.107l0.065-0.117l15.893-24.23l20.45,0.072h0.355l0.217-0.357l1.687-2.205l0.053,29.764
					l-5.562,26.172l-0.172,0.801l0.219,0.779l4.714,16.857l3.773,25.17l0.989,30.922l-0.91,16.92l-0.081,1.516l1.118,1.01
					l19.205,17.316l3.591,15.145l0.16,0.668l0.42,0.533l9.729,12.34l-1.773,32.945l-0.05,0.994l0.528,0.807l10.046,15.344
					l0.064,12.156l0.018,3.256l0.01,1.629l-0.032,1.549l-0.147,6.514l-0.534,26.053l-0.013,0.625l0.25,0.529l12.546,26.414
					l0.276,0.582l0.496,0.342l8.598,5.908l0.471,44.295l0.008,0.691l0.448,0.479l5.854,6.242l2.928,3.119l1.463,1.559
					c0.434,0.453,0.935,1.045,1.4,1.561l11.203,12.629l3.813,10.129l0.125,0.332l0.256,0.199l14.278,11.156
					c6.889,7.605,13.791,15.201,20.767,22.729c6.988,7.559,14.02,15.074,21.177,22.479c-6.596-7.908-13.315-15.705-20.08-23.463
					c-6.756-7.766-13.586-15.465-20.43-23.148l-0.051-0.055l-0.069-0.059l-13.804-11.307l-3.56-10.152l-0.076-0.219l-0.17-0.201
					l-11.06-13.061c-0.479-0.555-0.883-1.064-1.42-1.656l-1.428-1.594l-2.854-3.188l-5.247-5.855l0.478-44.814l0.013-1.135
					l-0.957-0.682l-8.893-6.34l-11.577-25.516l0.894-25.455l0.216-6.508l0.053-1.707l0.01-1.629l0.019-3.256l0.069-13.029
					l0.005-0.84l-0.471-0.738l-9.799-15.326l1.898-33.131l0.063-1.148l-0.716-0.914l-9.97-12.738l-3.608-15.447l-0.221-0.941
					l-0.725-0.658l-18.738-17.016l0.892-15.543l0.008-0.133l-0.006-0.143l-0.894-31.26l-0.004-0.186l-0.029-0.193l-3.746-25.582
					l-0.027-0.197l-0.057-0.201l-4.487-16.266l5.258-25.719l-0.227-0.346v-0.361l0.352-29.844l4.075-14.139l7.513-9.562l0.265-0.293
					l-0.08-0.354l-3.843-13.752l0.071-38.01l14.966-8.807l4.286-2.526l4.088-2.605l8.174-5.211l8.173-5.211l2.044-1.303l1.021-0.651
					l1.095-0.734l4.009-2.724l15.089-10.25l26.339,0.045l2.561,0.004l0.929-2.402l3.824-9.89l12.578,0.021l1.659,0.003l1.133-1.231
					l10.293-11.189l6.761-5.896l9.957,13.026l0.016,0.019l0.015,0.018l11.128,12.519l-4.154,13.39l-0.1,0.321l0.209,0.265
					l12.276,15.581l7.921,15.379l-4.663,24.74l-11.158,14.872l-8.324,2.539l-0.217,0.066l-0.128,0.188l-17.995,26.76l-0.037,0.057
					l-0.025,0.062l-9.347,23.686l0.085,0.115v0.123v17.051v0.152l-0.062,0.135l9.243,18.613l-9.303,13.9l-0.039,0.033l-0.024,0.035
					l-5.159,10.309l-23.588,20.758l-0.125,0.109l-0.058,0.152l-6.415,17.051l-0.296,0.105v0.113v21.314v0.107l0.294,0.102
					l12.373,35.324l-6.656,21.656l-8.677,20.004l9.299-19.76l0.015-0.012l0.011-0.02l7.417-21.682l0.07-0.199l-0.33-0.209
					l-12.537-35.42v-21.094l6.321-16.793l23.688-20.73l0.157-0.084l0.09-0.111l5.207-10.385l9.462-14.176l0.211-0.309l-0.034-0.332
					l-9.276-18.811v-0.631l5.456,4.592l-0.034,0.027l0.003,0.021l11.295,7.07l10.274,9.816l9.32,20.504l-6.057,20.5l-9.352,12.223
					l-0.185,0.24l0.041,0.174l-4.029,24.945l-4.048,17.035l-0.029,0.121l0.018,0.115l1.765,11.533l0.44,2.885
					c0.156,0.969,0.274,1.9,0.462,2.904l1.214,5.705l4.859,22.826l-4.231-22.951l-1.059-5.736c-0.145-0.914-0.247-1.916-0.373-2.869
					l-0.362-2.896l-1.432-11.455l4.025-16.938l0.006-0.023l0.003-0.021l3.54-21.92l2.049,8.701l0.058,0.246l0.21,0.141l15.63,10.342
					l6.585,10.617v15.451v0.326l0.147,0.193l13.608,9.9l6.788,8.178l-6.993,19.074l-0.062,0.148l0.017,0.146l4.895,35.92
					l-3.611-35.91l7.053-19.285l0.126-0.346l-0.235-0.283l-7.104-8.525l-0.052-0.061l0.053-0.049l-13.35-9.754V713.43v-0.18
					l-0.211-0.152l-6.693-10.895l-0.103-0.121l-0.133-0.078l-15.428-10.281l-2.665-11.297l9.236-12.076l0.069-0.094l0.033-0.113
					l6.156-20.846l0.067-0.229l-0.099-0.217l-9.474-20.834l-0.052-0.113l-0.088-0.086l-10.419-9.945l-0.047-0.045l-0.057-0.035
					l-11.204-7.084l-6.233-5.232v-14.49l9.274-23.508l17.767-26.516l8.274-2.533l0.184-0.061l0.118-0.168l11.366-15.156l0.087-0.119
					l0.027-0.146l4.73-25.104l0.042-0.216l-0.102-0.196l-8.052-15.629l-0.027-0.055l-0.039-0.049l-12.105-15.365l4.163-13.414
					l0.106-0.345l-0.239-0.271l-11.351-12.769l-9.995-13.074l2.065-1.801l-1.553-2.729l-7.046-12.378l0.022-13.428l6.824-18.102
					l0.885-2.344l0.441-1.173l0.111-0.292l0.031-0.084l0.003-0.005l0.03-0.073l0.242-0.582l1.922-4.65
					c1.274-3.103,2.534-6.211,3.771-9.349l1.822-4.753c0.3-0.807,0.593-1.616,0.882-2.479c0.146-0.438,0.287-0.872,0.438-1.412
					c0.028-0.12,0.058-0.228,0.088-0.349c0.038-0.041,0.074-0.082,0.112-0.12l0.785-0.814l1.72-1.683l3.598-3.374
					c4.502-4.141,9.108-8.243,13.72-12.304l9.845,0.017l2.233,0.004l1.193-1.903l7.572-12.069l-4.401,14.055l-0.161,0.513
					l0.11,0.515l3.674,17.257l-7.168,12.62l-0.284,0.5l0.028,0.564l0.572,10.889l0.286,5.444l0.141,2.7l0.11,2.724l0.88,21.479
					l-4.526,14.605l-10.189,14.954l-0.275,0.454v0.541v17.05v0.479l0.229,0.403l8.553,14.188l0.131,0.22l0.185,0.166l18.036,16.06
					l0.087,0.079l0.093,0.061l10.866,7.084l0.206,10.518v0.646l0.273,0.451l13.713,13.739l-0.019,10.741l-0.02,0.82l0.679,0.43
					l22.471,13.973l6.479,11.047l0.071,0.125l0.094,0.104l17.097,18.902l0.122,0.135l0.148,0.094l0.606,0.385l-1.886,6.674
					l-9.799,8.398l-0.043,0.037l-0.037,0.045l-12.314,15.156l-0.066,0.082l-0.037,0.098l-5.684,15.154l-0.108,0.289l0.159,0.266
					l5.542,9.238l-4.994,17.904l6.294-17.807l0.094-0.264l-0.154-0.258l-5.526-9.209l5.539-14.768l12.213-15.031l9.902-8.488
					l0.147-0.125l0.053-0.188l1.834-6.492l7.8,5.133l-0.271,15.395v0.277l0.422,0.244l5.789,12.131l5.156,12.312l10.248,24.518
					l0.135,12.09v0.451l0.25,0.316l9.363,9.35l7.523,13.121l0.062,0.119l0.089,0.094l12.113,12.055l1.514,1.506
					c0.234,0.24,0.54,0.529,0.717,0.727l0.719,0.789l2.882,3.154l5.765,6.309l0.124,0.137l0.164,0.078l9.443,4.469l0.019,7.635
					l-6.877,8.295l-0.037,0.043l-0.028,0.045l-6.589,10.436l-0.11,0.205v0.238v19.891v0.408l0.337,0.23l18.879,13.145l8.242,11.844
					l-8.289,15.756l-0.077,0.148l0.003,0.15l0.64,29.363l0.637-29.199l8.493-15.949L470.541,781.582z M314.719,240.244
					C314.709,240.257,314.705,240.262,314.719,240.244L314.719,240.244z M313.989,254.554c0.003-0.004-0.007,0.009-0.009,0.012v0
					L313.989,254.554z M115.608,547.496l-5.032,6.473l2.25-9.184l-0.174-0.447v-0.477l0.307-4.752L115.608,547.496z M244.44,372.013
					v-0.003C244.44,372.043,244.44,372.063,244.44,372.013z M246.545,346.794c0,0.007-0.001,0.014-0.001,0.021
					c0-0.003,0-0.004,0-0.007L246.545,346.794z M246.654,347.829c-0.043-0.164-0.074-0.334-0.092-0.505
					c-0.005-0.05-0.003-0.1-0.005-0.149c0.022,0.233,0.054,0.467,0.115,0.688c-0.014-0.037-0.022-0.065-0.022-0.06l0.004,0.02
					C246.653,347.821,246.668,347.88,246.654,347.829z M254.322,345.749c0.006,0.025,0.006,0.053,0.013,0.079
					C254.283,345.664,254.115,345.09,254.322,345.749z M358.138,552.52l-6.534-11.26l-0.174-0.299l-0.297-0.188l-1.288-0.809
					l14.709,2.566l3.21,11.92l0.078,0.291l0.274,0.125l9.922,4.508l-3.302,11.682L358.138,552.52z"/>
			</g>
		</g>
	</g>
</g>
</svg>
