<?xml version="1.0" encoding="utf-8"?>
<!-- Generator: Adobe Illustrator 16.0.0, SVG Export Plug-In . SVG Version: 6.00 Build 0)  -->
<!DOCTYPE svg PUBLIC "-//W3C//DTD SVG 1.1//EN" "http://www.w3.org/Graphics/SVG/1.1/DTD/svg11.dtd">
<svg version="1.1" id="Layer_1" xmlns="http://www.w3.org/2000/svg" xmlns:xlink="http://www.w3.org/1999/xlink" x="0px" y="0px"
	 width="761.71px" height="1280.07px" viewBox="0 0 761.71 1280.07" enable-background="new 0 0 761.71 1280.07"
	 xml:space="preserve">
<g>
	<g>
		<g>
			<g>
				<path fill="#C6C8CA" d="M746.362,0.002l0.255,55.788l-11.246,11.466l-2.563,2.654l0.475,3.585l8.812,65.882l-17.941,30.214
					l-10.852,14.611l-1.091,1.472l-0.212,1.758l-3.783,31.428l-18.294,0.084l-6.528,0.03l0.031,6.468l0.009,1.802l-20.426,3.619
					l-0.617,0.11l-0.488,0.38l-22.071,17.176l-11.696,0.019l-0.898,0.002l-0.679,0.575l-35.223,29.834l-43.47,6.938l-0.321,0.051
					l-0.287,0.134l-32.96,15.387l-0.106,0.051l-0.097,0.057l-32.587,19.535l-33.002-10.336l-0.896-0.28l-0.802,0.471l-30.168,17.706
					l-0.729,0.426l-0.217,0.809l-7.454,28.042l-44.462,0.31h-0.565l-0.47,0.068l-29.703,18.979l-0.562,0.303l-0.205,0.602
					l-11.415,35.343l-15.14,14.293l-26.084,8.281l-0.504,0.158l-0.325,0.41l-24.571,31.169l-0.287,0.363l-0.056,0.455l-2.187,17.717
					l-26.128,12.666l-0.077,0.038l-0.068,0.042l-13.146,8.19l-42.787,3.716l-21.895-14.545l-0.402-0.267l-0.476,0.03l-22.763,1.432
					l-0.487,0.031l-0.357,0.326l-14.845,13.5l-0.158,0.144l-0.104,0.18l-15.103,26.163l-7.55,13.081l-3.777,6.541l-1.887,3.271
					c-0.697,1.182-1.191,2.252-1.798,3.384l-27.81,53.635l-0.246,0.473l0.199,0.49l8.775,21.606l-1.028,36.818l-7.058,18.609
					l-29.822,4.77l28.563-3.348l-16.632,16.52l-32.837,4.945l33.031-4.328l0.101-0.014l0.077-0.074l18.288-17.482l0.084-0.08
					l0.047-0.117l7.614-18.977l0.045-0.113l0.006-0.135l1.75-37.156l0.011-0.231l-0.091-0.227l-8.592-21.354l27.746-53.073
					c0.584-1.085,1.159-2.297,1.754-3.278l1.897-3.264l3.798-6.528l7.595-13.056l15.082-25.929l14.369-12.98l21.803-1.299
					l21.881,14.641l0.426,0.285l0.515-0.043l42.863-3.577l-5.703,31.154l-78.847,52.875l-0.24,0.162l0.091,0.276l3.159,9.478
					l-25.705,16.984l-23.617,4.169l-0.165,0.029l-0.088,0.14l-9.247,14.468l-0.102,0.065v0.073l0.314,34.845l0.285-34.767
					l9.282-14.133l23.539-4.152l0.081-0.014l0.067-0.044l26.019-17.188l0.246-0.162l-0.093-0.277l-3.161-9.481l78.743-52.8
					l0.134-0.091l0.029-0.159l5.77-31.518l0.022-0.002l0.365-0.03l0.317-0.196l13.412-8.294l26.896-12.928l0.793-0.381l0.11-0.877
					l2.296-18.121l24.061-30.312l25.998-8.161l0.382-0.12l0.296-0.277l15.82-14.842l0.333-0.312l0.145-0.442l11.469-35.119
					l28.729-18.337l45.436,0.076l1.527,0.003l0.401-1.48l7.727-28.442l21.616-12.59l-1.39,10.426l-17.479,20.27l-0.052,0.062
					l-0.04,0.071l-12.927,23.128l-17.017,15.201l-25.932,14.382l-0.24,0.134l-0.095,0.26l-12.033,33.405l-15.861,27.834
					l-0.208,0.157v0.179l0.14,23.458l-10.378,12.835l0.002,0.18v0.231v22.765v0.231l-0.124,0.186h-12.415H314.5l-0.12,0.403
					l-6.181,24.161l-15.039,19.638l15.581-19.583l0.039-0.309h0.019l6.683-23.031h13.015l9.163,10.739l6.724,28.618l0.013,0.041
					l0.025,0.044l19.273,42.169l0.922,11.838l-6.527,14.822l0.156,0.069v0.071l0.147,26.018l0.239-25.939l7.082-14.715l0.038-0.125
					l-0.023-0.147l-0.925-12.079l-0.012-0.098l-0.042-0.091l-19.225-42.242l-6.697-28.751l-0.034-0.144l-0.097-0.114l-10.063-11.912
					l0.02-22.302l10.398-12.822v-0.183v-0.237l0.171-23.516l15.804-27.706l0.065-0.052l0.04-0.057l12.021-33.181l25.793-14.247
					l0.076-0.042l0.064-0.057l17.205-15.317l0.097-0.086l0.064-0.114l12.987-23.15l17.617-20.366l0.16-0.184l0.033-0.243
					l1.612-11.943l5.261-3.064l33.012,10.459l0.924,0.293l0.837-0.5l33.386-19.861l32.611-15.092l43.835-6.847l0.649-0.101
					l0.51-0.428l35.136-29.62l11.655-0.04h0.839l0.673-0.459l22.296-17.201l18.97-3.282l0.049,10.638l-6.843,3.777l-2.96,1.634
					l-0.315,3.309l-4.291,44.988l-12.062,18.274l-1.153,1.747l0.157,2.032l3.951,51.088l0.055,0.704l-32.658,31.986l-0.675,0.66
					l-0.188,0.909l-5.817,28.107l-10.185,12.461l-0.56,0.684l-0.095,0.863l-4.942,45.049l-10.679,20.939l-0.572,0.594v0.649
					l0.422,57.741l-13.422,20.237l-14.242,8.097l-1.255,0.729l0.021,1.47l0.158,59.514l-26.99,16.105l-0.99,0.67v0.756l-9.109,8.168
					l-0.809,0.674l-0.031,0.992l0.027,15.623l-16.155,5.574l-1.462,0.502l0.003,1.531l0.03,12.33l-13.758,3.793l-0.498,0.137
					l-0.367,0.346l-53.932,50.518l-41.725,14.34l-41.174,6.592l-1.438,0.229l0.062,1.447l1.957,46.244l-18.094,17.174l-18.008-0.084
					h-0.399l-0.332,0.34l-35.355,22.24l-47.439-4.158l-0.401-0.018l-0.321,0.223l-19.367,12.949l-0.398,0.268l0.007,0.461
					l0.545,47.262l-19.192,19.527l19.736-19.172l0.093-0.09l0.002-0.137l0.543-46.91l18.935-12.031l47.456,4.449l0.42,0.041
					l0.366-0.227l35.496-22.248l18.192-0.209h0.568l0.419-0.137l19.098-17.938l0.49-0.398l-0.024-0.654l-1.679-45.459l39.937-6.162
					l0.144-0.02l0.147-0.047l42.319-14.287l0.373-0.125l0.298-0.275l5.747-5.324l-8.243,35.557l-16.083,15.002l-27.733,21.865
					l-33.6,8.887l-0.145,0.039l-0.095,0.109l-28.371,32.236l-0.007,0.008l-0.004,0.006l-20.039,27.307l20.381-27.051l-0.012,0.016
					l28.674-31.768l14.752-3.703l3.572,5.508l3.524,5.328l-9.329,8.844l-2.456,2.328l-2.314,2.434l-4.629,4.865l-18.513,19.465
					l-0.026,0.027l-0.015,0.031l-4.688,10.541l5.05-10.332l18.942-19.002l4.739-4.758l2.371-2.379l2.429-2.277l9.797-9.189
					l0.419-0.393l-0.318-0.482l-3.824-5.814l-3.406-5.076l17.639-4.426l0.141-0.037l0.118-0.094l27.888-21.934l0.023-0.02
					l0.022-0.021l14.53-13.521l-17.858,77.031l-14.499,17.902c-0.603,0.824-1.108,1.6-1.645,2.439l-1.576,2.459l-3.095,4.906
					l-6.122,9.812l-12.857,16.672l-2.814,2.098l-16.232,4.879l15.219-4.123l-30.743,22.908l-0.081,0.061l-0.033,0.09l-10.843,30.312
					l11.422-29.99l33.675-24.303l0.937-0.254l26.444,0.363l0.225,0.002l0.181-0.146l12.864-10.557l-7.609,9.967l-24.332,6.729
					l-0.033,0.008l-0.023,0.012l-27.268,12.859l27.523-12.215l24.676-6.215l0.209-0.053l0.135-0.178l11.035-14.451l0.159-0.131
					l0.084,16.426l-18.042,26.033l-0.133,0.035v0.041l0.24,39.953l0.188-39.912l18.47-25.893l0.295-0.072v-0.096l-0.127-17.139
					l-0.083-0.02l-0.078-0.029l-0.024-0.379l0.017-0.062l1.875-2.467l-0.514-0.393l6.791-14.607l-0.18-0.094v-0.105l1.139-37.131
					l10.566-69.73l18.261-2.281l0.262-0.029l0.192-0.158l27.935-25.25l-4.712,21.576l-2.159,9.895l-0.271,1.236l-0.065,0.309
					l-0.039,0.201l-0.024,0.156l-0.1,0.625l-0.394,2.502l-0.789,5.002l-3.443,20.012l-0.295,0.029v0.025l-3.6,50.543l-12.411,16.73
					l-12.507,16.877l13.008-16.576l12.938-16.617l0.083-0.096l0.016-0.127l4.466-50.584l3.24-19.979l0.812-4.998l0.405-2.5
					l0.102-0.625l0.024-0.156l0.024-0.109l0.067-0.311l0.275-1.236l2.198-9.887l5.305-23.859l22.342-19.928l17.116,0.277h0.217
					l0.188-0.377l20.915-12.316l0.22-0.193l0.108-0.268l12.525-26.77l7.633-10.746l0.128-0.186l0.021-0.225l1.72-17.104
					l26.263-24.506l-0.062-0.066l0.181-0.133l0.052-0.312l4.153-24.796l23.805-20.318l28.903-19.814l0.455-0.31l-0.095-0.542
					l-3.381-19.708l8.825-7.336l0.128-0.265v-0.422l0.208-12.928l19.264-24.26l1.499-0.468l-5.479,56.362l-12.91,8.159l-2.243,1.42
					l0.154,2.617l3.028,52.021l0.056,0.949l0.43,0.805l25.712,48.135l-3.298,47.504l-12.704,11.111l-1.632,1.428l0.44,2.088
					l5.138,24.273l-60.593,30.645l-0.662,0.334l-0.436,0.562l-45.953,59.381l-34.863,25.939l-0.463,0.342l-0.273,0.482
					l-18.434,32.605l-0.48,0.85l0.211,0.932l5.663,24.914l1.84,22.572l-65.507,39.531l-0.675,0.408l-0.193,0.75l-14.43,56.051
					l-36.429,19.342l-0.665,0.352l-0.099,0.732l-3.082,22.984l-13.608,0.119h-0.528l-0.046,0.402l-2.334,26.42l-0.003,0.018
					l0.003,0.033l1.492,18.123l-7.791,7.926l-0.037,0.035l-0.026,0.041l-5.1,7.732l-50.351,11.393l-0.182,0.041l-0.132,0.119
					l-51.721,46.668l-30.074,4.637l-0.064,0.01l-0.041,0.051l-20.775,25.346l20.995-25.078l30.158-4.328l0.096-0.014l0.075-0.066
					l52.14-46.064l48.357-10.41l-5.561,8.434l-6.089,9.236l-3.045,4.617l-1.522,2.309c-0.489,0.73-1.095,1.469-1.637,2.203
					c-8.921,11.744-17.804,23.52-26.655,35.318c9.081-11.623,18.131-23.27,27.143-34.947c0.56-0.742,1.138-1.426,1.684-2.219
					l1.545-2.293l3.093-4.586l6.183-9.172l6.19-9.186l14.351-3.09l1.896,23.045l-20.49,12.5l-0.028,0.018l-0.021,0.018
					l-27.249,22.502l-0.015,0.012l-0.01,0.016l-14.27,18.223l14.523-17.998l27.535-22.068l20.974-12.377l0.325-0.189l-0.031-0.381
					l-1.957-23.572l6.239-1.344l0.729-0.154l0.107-0.752l3.404-23.611l12.211-12.346l0.055-0.053l0.04-0.07l14.738-25.598
					l8.611-2.984l0.065-0.023l0.057-0.037l21.365-13.947l0.102-0.066l0.064-0.1l24.079-38.465l15.687-9.699l0.149-0.09l0.063-0.164
					l9.225-23.547l10.087-6.887l0.188-0.129l0.031-0.225l4.169-32.061L529.147,998l-4.166,31.83l-10.031,6.836l-0.132,0.088
					l-0.059,0.148l-9.237,23.529l-15.651,9.658l-0.105,0.066l-0.065,0.105l-24.111,38.447l-21.218,13.824l-7.327,2.535l2.58-4.482
					l0.138-0.24l-0.071-0.266l-5.336-19.898l19.396-10.07l0.638-0.33l0.188-0.707l14.925-55.846l66.42-39.262l1.201-0.709
					l-0.102-1.412l-1.748-24.166l-0.012-0.158l-0.037-0.176l-5.26-24.158l17.967-31.107l34.983-25.531l0.308-0.225l0.251-0.32
					l46.272-58.674l28.583-14.127l-9.668,11.113l-13.439,9.697l-0.604,0.363v0.613l0.23,62.418l-16.844,27.646l-0.021,0.246v0.287
					l0.007,41.609l-17.399,37.658l-8.741,18.922c-0.729,1.506-1.57,3.082-2.347,4.619l-2.372,4.641l-4.622,9.055l-44.261,21.484
					l-0.086,0.041l-0.063,0.066l-30.942,32.652l-27.281,16.373l-22.246,10.33l22.353-10.107l0.007-0.002l0.006-0.004l27.49-16.123
					l0.032-0.02l0.028-0.029l31.227-32.293l44.627-21.109l0.231-0.107l0.118-0.232l4.771-9.26l2.388-4.631
					c0.794-1.559,1.594-3.051,2.384-4.666l8.799-18.889l17.343-37.775l-0.169-0.182V967.4l0.339-41.523l17.255-27.6l0.318-0.258
					v-0.309l0.095-62.102l12.978-9.371l0.105-0.08l0.091-0.107l13.854-15.797l28.143-13.91l2.427-1.199l-0.543-2.686l-5.022-24.848
					l12.374-10.625l1.162-0.996l0.124-1.562l3.945-50.16l0.089-1.123l-0.539-1.029l-25.352-48.527l-2.373-48.478l12.681-7.845
					l1.881-1.163l0.239-2.239l6.707-62.742l1.124-0.363l0.406-0.131l0.167-0.396l8.318-19.722l8.953-4.638l2.686-1.391l0.016-3.07
					l0.229-50.176l0.013-2.794l-2.357-1.588l-23.193-15.617l5.271-7.541l3.412-4.883l-5.202-3.005l-9.434-5.448l1.983-9.052
					l0.518-2.359l-1.402-2.03l-20.317-29.431l-3.234-47.473l11.962-17.763l0.836-1.245l0.162-1.547l4.507-43.076l7.323-3.951
					l3.316-1.79l0.018-3.828l0.068-14.844l17.693,0.082l5.803,0.027l0.754-5.815l4.58-35.33l10.15-13.407l0.196-0.257l0.198-0.33
					l19.658-32.434l1.249-2.064l-0.306-2.456l-8.07-64.726l10.978-10.907l2.153-2.139l0.015-3.385l0.269-58.826H746.362z
					 M395.959,1157.887l2.262-25.908l12.927-0.006l-4.525,33.559l-9.246,9.412L395.959,1157.887z M384.703,1191.492l4.574-6.787
					l7.118-7.197l0.916,11.131L384.703,1191.492z M403.701,1187.195l-5.211,1.176l-0.994-11.975l8.871-8.971L403.701,1187.195z
					 M420.431,1151.477l-11.005,11.203l4.429-30.516l6.605,0.189h0.096l0.09-0.223l13.649-4.826L420.431,1151.477z
					 M438.323,1120.158l-3.182,5.568l-14.779,5.109l-6.343-0.002l3.131-21.719l16.038-8.328L438.323,1120.158z M451.177,774.951
					l46.508-43.094l14.854-4.008l1.553-0.42l0.005-1.617l0.033-12.396l16.224-5.502l1.482-0.502l0.004-1.58l0.045-16.186
					l4.458-4.012l3.491,27.77l-24.31,24.307l-0.059,0.059l-0.047,0.068l-1.712,2.479l-21.73,1.102l-0.256,0.014l-0.18,0.184
					l-40.85,41.85l-0.137,0.141l-0.027,0.193l-3.384,22.879l-0.136,0.018l-0.176,0.164l-3.92,3.656L451.177,774.951z
					 M436.473,877.66l-0.179,0.031v0.031l-0.701,37.066l-7.018,15.217l-2.189,2.924l-16.866,13.857l-26.012,0.355l0.168-0.117
					l0.076-0.055l0.06-0.076l12.943-16.766l0.021-0.023l0.019-0.031l6.141-9.828l3.092-4.898l1.551-2.42
					c0.503-0.789,1.059-1.629,1.592-2.365l14.602-17.998l0.099-0.123l0.034-0.152l18.408-79.197l4.416-4.189L436.473,877.66z
					 M465.892,804.307l-17.552,2.221l3.352-22.357l40.605-41.457l20.433-0.982l-14.003,20.289l-0.098,0.143l-0.037,0.164
					l-3.366,15.402L465.892,804.307z M578.302,689.75l-0.031,0.318l-1.709,17.203l-7.531,10.623l-0.043,0.062l-0.032,0.066
					l-12.423,26.607l-20.491,11.756l-17.203-0.205h-0.307l-0.226,0.42l-20.922,19.064l2.87-12.852l14.757-21.219l14.664-0.691
					l0.357-0.01l0.197-0.299l23.641-36.117l40.852-30.086l-16.186,15.137L578.302,689.75z M687.897,533.17l-0.268,0.088
					l-0.174,0.219l-19.437,24.757l-0.137,0.245v0.311l-0.042,12.819l-9.104,7.409l-0.411,0.324l0.081,0.502l3.405,19.666
					l-28.454,19.576l-0.036,0.025l-0.033,0.028l-24.025,20.577l-0.223,0.19l-0.046,0.286l-4.092,24.678l-0.465,0.434l-51.533,38.09
					l-0.105,0.076l-0.07,0.109l-23.483,35.949l-13.248,0.672l0.875-1.26l24.561-24.566l0.314-0.316l-0.057-0.441l-3.773-29.398
					l2.777-2.709l0.519-0.674v-0.174l27.498-15.996l1.278-0.68l0.061-1.359l0.179-59.38l13.62-7.607l0.53-0.294l0.349-0.509
					l14.46-21.336l0.447-0.66l0.003-0.811l0.146-57.876l10.445-20.765l0.225-0.444l0.059-0.509l5.125-44.64l10.166-12.312
					l0.464-0.562l0.155-0.726l5.915-27.865l31.081-30.135l17.721,25.171l-2.222,10.606l-0.838,4.002l3.515,1.987l7.855,4.441
					l-4.909,7.161l-3.134,4.571l4.583,3.025l25.627,16.917l0.204,44.309l-16.752,8.875l-2.364,1.252l-0.255,2.617l-2.074,21.234
					L687.897,533.17z M700.479,528.868l1.505-14.073l5.628-2.915L700.479,528.868z"/>
			</g>
		</g>
	</g>
</g>
</svg>
