<?xml version="1.0" encoding="utf-8"?>
<!-- Generator: Adobe Illustrator 16.0.0, SVG Export Plug-In . SVG Version: 6.00 Build 0)  -->
<!DOCTYPE svg PUBLIC "-//W3C//DTD SVG 1.1//EN" "http://www.w3.org/Graphics/SVG/1.1/DTD/svg11.dtd">
<svg version="1.1" id="Layer_1" xmlns="http://www.w3.org/2000/svg" xmlns:xlink="http://www.w3.org/1999/xlink" x="0px" y="0px"
	 width="238.428px" height="752.247px" viewBox="163.787 0 238.428 752.247" enable-background="new 163.787 0 238.428 752.247"
	 xml:space="preserve">
<g>
	<g>
		<g>
			<g>
				<path fill="#C6C8CA" d="M389.269,436.543l1.599-30.057l0.398-7.527l0.102-1.881l0.008-1.906l-0.232-3.77l-0.209-15.075v-0.168
					l0.144-0.146l-3.754-5.844l5.964-13.061l0.162-0.29l-0.144-0.279l-7.729-13.761l0.066-29.206v-0.456l-0.461-0.168l-15.832-6.23
					l-0.044-0.015l-0.044-0.01l-5.958-1.592l-9.283-13.956l-0.087-0.131l-0.136-0.083l-12.833-7.816l0.086-2.644l0.187-5.64
					l0.004-0.11l-0.023-0.112l-2.333-11.07l-0.01-0.046l-0.016-0.048l-2.428-7.524l-1.725-13.548l-0.025-0.199l-0.102-0.171
					l-6.222-10.791l0.168-28.587v-0.061l-0.205-0.057l-1.388-9.927l-0.102-0.407l-0.36-0.227l-11.855-8.017l-2.536-5.059
					l0.043-0.041l0.008-1.385l0.231-34.097l0.008-1.117l-0.714-0.918l-9.499-12.247l-0.209-0.269l-0.296-0.249l-7.296-6.117
					l-6.218-17.343l-0.657-1.835l-1.646-1.215l-3.974-2.932l-2.541-9.576l-0.166-0.628l-0.336-0.673l-4.217-8.456l-2.514-7.221
					l-0.2-0.574l-0.397-0.659l-7.532-12.468l-0.091-11.324l3.309-10.27l3.245-3.854l0.345-0.41l0.388-0.692l6.038-10.8l1.152-2.062
					l-0.281-2.495L276.154,0L260.74,1.856l1.869,14.578l-4.365,8.27l-3.319,4.369l-0.929,1.225l-0.352,1.197l-3.767,12.837
					l-0.336,1.146l0.021,1.055l0.279,14.413l0.039,1.987l1.004,1.612l8.435,13.543l2.606,6.701l0.185,0.474l0.142,0.271l4.31,8.23
					l3.05,11.047l0.633,2.286l1.867,1.349l4.349,3.141l8.99,23.63l0.263,0.69l0.339,0.521l5.739,8.842l-5.023,20.271l-0.285,1.159
					l0.141,1.072l1.878,14.232l-1.217,11.163l-11,10.025l-1.208,1.102l0.357,1.558l6.732,29.378l-20.538,20.123l-0.494,0.483
					l-0.312,0.523l-5.407,9.027l-0.625,1.042l-0.09,1.118l-1.309,16.216l-0.103,1.279l0.485,1.088l6.781,15.215l-1.094,22.391
					l-0.043,0.89l0.259,0.763l8.487,24.997l-6.667,15.609l-0.789,1.848l0.944,1.691l4.11,7.358l-0.355,0.697l-6.186,7.562
					l-11.267,8.828l-21.186,4.099l-0.234,0.045l-0.19,0.131l-29.004,19.68l-0.126,0.089l-0.093,0.108l-12.058,14.422l-0.195,0.232
					l-0.028,0.291l-1.065,10.938l-4.832,5.929l-5.893,7.26l-0.144,0.176l0.016,0.23l1.217,17.483l0.018,0.246l0.19,0.156
					l11.074,9.051l-6.816,37.06l-0.266,0.047v0.045l0.378,20.686L163.81,556.98l-0.023,0.086l0.08,0.106l4.503,10.162l-4.115-10.184
					l15.199-14.314l-0.06-0.115v-0.174l0.309-20.805l6.781-37.324l0.104-0.322l-0.231-0.209l-11.112-9.119l-1.155-17.014
					l5.707-7.119l3.791-4.75l-0.005,0.062l-0.025,0.264l0.119,0.229l9.404,18.054l-5.123,20.953l-0.04,0.162l0.029,0.161
					l3.453,19.14l0.039,0.213l0.142,0.154l12.72,13.686l1.832,19.426l0.011,0.115l0.062,0.088l9.506,13.492l0.874,34.008
					l-0.173-34.102v-0.084l-0.12-0.072l-9.303-13.623l-1.538-19.549l-0.024-0.189l-0.139-0.149l-12.479-13.873l-3.303-18.787
					l5.254-21.074l0.075-0.301l-0.144-0.277l-9.343-18.135l1.371-12.297l11.945-13.933l28.746-19.387l21.302-3.89l0.288-0.054
					l0.244-0.187l11.739-8.952l0.112-0.086l0.101-0.12l6.113-7.304l12.508,22.394l-17.674,30.451l-0.167,0.289l-0.093,0.256
					l-10.609,29.479l-0.711,1.977l1.52,1.357l19.722,17.637l0.254,0.228l0.261,0.146l27.562,15.348l1.74,10.404l0.198,1.184
					l0.986,0.587l6.989,4.151l10.788,20.611l0.174,0.332l0.058,0.057l-4.753,12.637l-4.593,2.701l-0.488,0.289l-0.02,0.56
					l-0.347,9.562l-4.302,6.502l-5.887,6.57l-0.456,0.268v0.353l0.293,18.692l0.132,4.673l0.064,2.336
					c-0.009,0.762,0.056,1.598,0.013,2.299l-0.332,8.477l-11.579,11.051l-0.062,0.062l-0.045,0.072l-3.048,4.655l-0.097,0.148
					l-0.019,0.174l-1.539,14.166l-0.012,0.105l0.02,0.102l1.532,7.961l-7.655,10.008l-0.181,0.234l0.06,0.287l2.899,14.156
					l0.036,0.174l0.121,0.127l3.902,4.065l-1.756,11.037l-13.112,20.023l-16.039,13.076l-0.138,0.062v0.098l0.265,24.785
					l0.233-24.688l16.177-12.791l0.051-0.033l0.038-0.049l13.271-19.558l13.051,5.207l1.423,8.451l0.739,4.388l0.368,2.19
					c0.117,0.729,0.253,1.484,0.396,2.201l3.304,17.256l-6.169,9.658l-0.272,0.424l0.394,0.293l13.713,10.197l-12.664-10.73
					l6.047-9.432l0.118-0.187l-0.04-0.215l-3.318-17.477c-0.146-0.738-0.271-1.441-0.388-2.178l-0.366-2.193l-0.73-4.385
					l-1.463-8.777l-0.054-0.318l-0.303-0.12l-13.344-5.351l1.795-10.975l0.049-0.291l-0.205-0.217l-3.965-4.17l-2.737-13.707
					l7.716-9.978l0.186-0.239l-0.057-0.302l-1.538-8.162l1.577-13.879l2.931-4.418l10.964-10.317l6.749,7.026l4.812,6.437
					l0.033,0.045l0.036,0.037l15.15,15.436l1.593,14.295l0.023,0.207l0.13,0.156l11.806,14.33l0.878,13.188l0.005,0.066l0.021,0.057
					l7.61,21.146l-0.139,15.25l-3.942,7.453l0.062,0.028v0.031l-0.862,22.824l1.014-22.781l4.097-7.412l-0.016-0.041v-0.049v-15.352
					v-0.05l0.162-0.049l-7.209-21.236l-0.636-13.323l0.013-0.172l-0.102-0.144l-11.552-14.486l-1.502-14.36l-0.025-0.254
					l-0.181-0.188l-15.214-15.654l-4.777-6.459l-0.027-0.036l-0.037-0.041l-6.734-7.095l0.057-0.053l-0.075-0.08l0.401-8.867
					c0.051-0.854,0.017-1.578,0.028-2.375l0.004-2.336l0.006-4.674l0.025-18.336l5.516-6.316l0.04-0.045l0.035-0.055l4.52-6.768
					l0.153-0.229l0.011-0.281l0.405-9.268l4.449-2.578l0.316-0.186l0.133-0.349l4.62-12.102l10.303,9.854l0.702,48.031l0.004,0.277
					l0.122,0.217l4.047,7.133l0.12,0.215l0.191,0.119l11.203,6.92l8.702,11.691l-0.951,16.858l-0.003,0.045l0.003,0.037l2.763,41.17
					l-4.524,17.425l-0.218,0.018v0.018l0.605,23.755l-0.025-23.74l4.646-17.381l0.037-0.039l0.012-0.045
					c-0.307-6.875-0.572-13.756-0.931-20.631l-1.015-20.58l1.13-17.097l0.02-0.271l-0.164-0.228l-8.877-12.094l-0.088-0.119
					l-0.133-0.084l-11.02-7.033l-3.59-6.807l0.711-48.535l0.011-0.688l-0.521-0.547l-11.535-12.062L313.815,512.7l-0.296-0.603
					l-0.615-0.381l-6.454-4.012l-1.544-10.592l-0.185-1.257l-1.137-0.646l-28.222-16.055l-17.605-16.4l10.315-27.059l19.147-31.734
					l1.066-1.77l-1.006-1.875l-15.48-28.849l0.317-0.601l22.675-22.541l0.503-0.501l-0.015-0.732l-0.373-19.585l21.644-30.312
					l0.244-0.342l0.093-0.44l2.551-11.9l0.052-0.242l-0.008-0.273l-0.304-10.64l-0.023-0.85l-0.604-0.634l-28.341-29.705l10.18-9.71
					l2.522-2.406l-1.221-3.364l-5.252-14.474l2.827-22.008l11.482-10.173l2.401,4.864l0.1,0.202l0.189,0.13l11.648,7.971
					l1.267,9.473l0.057,28.793v0.264l0.048,0.227l6.568,10.845l1.845,13.439v0.089l-0.133,0.085l2.373,7.56l2.312,10.902
					l-0.176,5.528l-0.089,2.821c-0.02,0.354-0.085,0.906-0.123,1.348l-0.13,1.405l-1.032,11.24l-0.019,0.196l0.065,0.182
					l10.54,29.019l2.439,14.597l0.054,0.326l0.278,0.163l16.417,9.694l0.009,15.148v0.116l0.223,0.091
					c4.351,6.779,8.873,13.499,13.264,20.252c-4.156-6.854-8.225-13.737-12.422-20.565l0.194-15.368l0.015-0.317l-0.274-0.168
					l-16.433-9.912l-2.219-14.383L350,326.231l-0.026-0.072l-10.351-28.956l1.07-11.043l0.136-1.405
					c0.001-0.007,0.001-0.014,0.002-0.021l12.093,7.334l9.369,14.022l0.146,0.219l0.254,0.066l6.174,1.639l15.531,6.019
					l0.188,28.918v0.171l-0.08,0.146l7.643,13.616l-5.93,13.09l-0.163,0.315l0.184,0.281l4.044,5.938l0.162,14.899l0.04,3.769
					l0.016,1.861l-0.075,1.883l-0.298,7.531l-1.194,30.127l-0.002,0.053l0.027,0.043l13.256,20.896L389.269,436.543z
					 M300.241,181.225l-1.542-13.727l5.833-21.799l0.554-2.069l0.702,0.881l0.214,31.593l-5.746,5.239L300.241,181.225z
					 M314.733,274.394l0.368,9.516l-2.23,11.257l-21.294,30.732l-0.353,0.507l0.021,0.592l0.639,19.483l-21.635,22.104l-0.61-1.136
					l6.845-15.211l0.641-1.426l-0.499-1.566l-8.216-25.796l1.542-22.719l0.072-1.068l-0.452-1.068l-6.406-15.147l1.374-13.795
					l4.614-7.388l17.415-16.611L314.733,274.394z M285.524,214.812l4.808,12.416l-3.809,3.731l-5.347-24.712l5.181-4.589
					l-1.147,10.541l-0.154,1.403L285.524,214.812z"/>
			</g>
		</g>
	</g>
</g>
</svg>
