<?xml version="1.0" encoding="utf-8"?>
<!-- Generator: Adobe Illustrator 16.0.0, SVG Export Plug-In . SVG Version: 6.00 Build 0)  -->
<!DOCTYPE svg PUBLIC "-//W3C//DTD SVG 1.1//EN" "http://www.w3.org/Graphics/SVG/1.1/DTD/svg11.dtd">
<svg version="1.1" id="Layer_1" xmlns="http://www.w3.org/2000/svg" xmlns:xlink="http://www.w3.org/1999/xlink" x="0px" y="0px"
	 width="340.51px" height="820.17px" viewBox="0 0 340.51 820.17" enable-background="new 0 0 340.51 820.17" xml:space="preserve">
<g>
	<g>
		<g>
			<g>
				<path fill="#C6C8CA" d="M319.811,491.922l6.499-5.955l0.169-0.154l-0.089-0.217l-5.616-13.754l-4.637-25.285l-0.057-0.312
					l-0.277-0.166l-32.562-19.463l-1.891-4.184l6.262-11.472l0.136-0.25l-0.093-0.268l-4.24-12.189l0.129-0.281l-0.088-0.312
					l-7.816-27.597l7.844-14.832l0.151-0.287l-0.052-0.324l-5.682-36.284l-0.066-0.423l-0.348-0.261l-17.616-13.275l-10.794-12.333
					l5.422-19.348l0.207-0.742l-0.593-0.501l-10.625-8.967l0.031-13.668l1.12-1.178l0.211-0.222l0.121-0.292l6.543-15.952
					l0.184-0.449l-0.084-0.486l-2.043-11.833l-0.047-0.273l-0.135-0.25l-9.398-17.472l1.795-7.927l0.233-1.027l-0.791-0.708
					l-34.513-30.864l-17.256-15.431l-2.157-1.929l-1.077-0.964l-1.205-0.975l-4.508-3.629l-4.316-3.475l-1.906-9.367l-0.644-3.164
					l-3.156-0.939l-11.235-3.347l-2.812-8.917l3.132-14.989l0.11-0.527l0.004-0.606l0.077-13.017l5.699-9.5l0.452-0.753l0.218-0.923
					l3.091-13.11l6.417-17.163l0.465-1.243l-0.118-1.396l-1.376-16.207l3.055-16.041L165.34,0l-3.005,16.874l-0.155,0.87
					l0.079,0.806l1.526,15.747l-5.853,16.241l-0.139,0.387l-0.074,0.333l-2.833,12.69l-5.888,10.087l-0.817,1.399l0.009,1.551
					l0.084,14.099l-3.112,15.836l-0.289,1.471l0.447,1.361l4.292,13.059l0.925,2.816l2.787,0.794l11.02,3.14l1.741,8.061
					l-1.797,18.442l-0.076,0.779l0.135,0.708l1.895,9.982l-4.78,28.919l-8.226,10.563l-1.389,1.783l0.42,2.162l2.919,15.006
					l1.204,18.952l0.045,0.719l0.231,0.622l4.608,12.391l-4.441,12.393l-0.583,1.63l0.617,1.559l19.365,48.9l0.257,0.646
					l0.196,0.237l-33.197,46.597l-37.558,21.83l-0.547,0.318l-0.04,0.625l-1.4,22.065l-12.687,13.035l-0.197,0.203l-0.073,0.268
					l-8.985,32.764l-67.874,42.236l-0.391,0.244l0.197,0.449l0.605,37.85v0.049l-0.183,0.039l8.28,35.693l-7.63-35.82l0.383-37.354
					l68.015-41.891l0.326-0.205l0.104-0.381l9.167-32.826l12.848-13.078l0.291-0.297l0.028-0.418l1.488-21.838l37.358-21.481
					l0.238-0.136l0.163-0.228l3.756-5.648l-0.285,22.348v0.262l0.491,0.186l6.748,6.724l-18.682,27.979l-0.079,0.176l0.038,0.207
					l3.346,37.684l0.01,0.055l0.021,0.047l21.925,54.869l-21.228-55.082l-2.853-37.461l18.987-28.197l0.287-0.425l-0.359-0.367
					l-6.756-6.917l0.024-23.933l27.75-38.566L198.9,350.75l-1.01,0.808l-0.906,0.724l-0.367,1.05l-6.977,20.003l-0.664,1.905
					l1.157,1.596l13.569,18.718l5.649,38.969l0.214,1.471l1.175,0.84l26.068,18.627l0.044,7.223l-3.49,4.465l-0.508,0.648
					l-0.127,0.777l-0.791,4.9l-3.948,5.971l-3.226,1.457l-0.313,0.141l-0.247,0.184l-46.518,34.58l-1.275,0.949l0.208,1.545
					l2.438,18.041l-1.883,19.416l-16.462,35.787l-0.617,1.344l0.983,1.066l0.353,0.385l-7.117,22.023l-13.482,12.074L127.196,640.4
					l-20.864,6.465l-0.109,0.035l-0.091,0.068l-16.416,12.605L72.45,661.33l-0.26,0.025l-0.167,0.201l-26.215,31.52l-25.76,10.562
					l-0.084,0.035l-0.053,0.064l-20.139,25.059l20.609-24.555l26.054-10.041l0.149-0.057l0.106-0.129l26.15-31.439l17.187-1.748
					l0.181-0.02l0.144-0.109l16.469-12.646l20.885-6.471l0.13-0.039l0.104-0.09l13.737-12.057l13.416-12.016l0.139,23.293
					l0.003,0.539l0.274,0.438l14.509,23.193l-2.823,13.27l-0.039,0.184l0.079,0.166l3.43,7.225l-2.733,3.16l-17.702,6.174
					l-0.894,0.312l0.004,0.934l0.158,26.291l-7.805,12.773l-0.184,0.301l0.027,0.332l1.706,21.303l-17.278,26.578l-0.088,0.137
					l0.016,0.15l1.986,18.842l-8.642,17.195l9.07-17.051l0.029-0.055l-0.005-0.068l-1.542-18.783l17.965-26.281l0.151-0.223
					l-0.016-0.287l-1.208-21.25l7.958-12.682l0.171-0.273l0.001-0.336l0.154-25.666l12.302-4.127l-9.397,10.869l10.623-11.281
					l10.701-3.59l0.333-0.113l0.257-0.266l11.69-12.129l20.586,23.16l-3.226,33.727l-0.018,0.184l0.082,0.164l4.506,9.012
					l-10.393,8.73l-0.291,0.244l0.221,0.293l13.626,18.104l-12.771-18.256l10.808-8.453l0.403-0.316l-0.234-0.467l-4.649-9.301
					l3.235-33.82l0.027-0.277l-0.186-0.209l-20.838-23.441l0.604-0.627l-1.538-1.059l-15.303-10.529l-1.158-1.9l8.365-38.014
					l18.727-28.209l0.084-0.127l0.037-0.156l10.086-44.318l-0.246-0.111v-0.119l0.305-9.418l24.904-34.684l0.637-0.797l-0.639-0.727
					l-11.668-12.607l3.15-4.682l1.779-1.285l7.725-3.377l1.494-0.652l0.285-1.643l1.771-10.191l3.755-4.684l0.679-0.848l0.006-1.123
					l0.061-9.979l0.01-1.633l-1.348-0.986l-25.963-19.023l-5.116-38.522l-0.116-0.876l-0.535-0.758l-12.691-17.953l6.149-16.974
					l3.356-2.618l3.177-2.477l-2.567-3.167l-23.354-28.798l21.993-18.54l0.183-0.155l0.128-0.21l18.074-29.471l9.686-13.142
					l6.655-7.007l0.024,11.579v0.578l0.443,0.368l10.52,8.794l-5.291,19.224l-0.166,0.606l0.412,0.467l11.34,12.837l0.078,0.088
					l0.091,0.068l17.429,13.009l5.73,35.51l-7.799,14.91l-0.176,0.336l0.104,0.36l7.96,27.619l-6.486,14.359l-0.158,0.348
					l0.158,0.344l4.515,9.873l-0.75,1.373l-15.058,21.307l-0.12,0.168l0.003,0.199l0.451,39.852l-10.9,12.49l10.941-12.295
					l-0.241-0.051v-0.074l0.737-39.715l15.11-21.176l0.094-0.029l0.054-0.033l0.325-0.562l1.517,3.297l0.109,0.229l0.217,0.127
					l32.598,19.281l5.052,24.922l0.012,0.051l0.017,0.041l5.805,13.486l-6.425,6.111l-0.21,0.199l0.227,0.176l21,16.217
					L319.811,491.922z M168.66,602.195l-12.644,13.057l6.41-19.834L168.66,602.195z M185.123,675.545l-10.232,10.875l-5.222,1.822
					l1.999-2.123l0.234-0.25l-0.15-0.32l-3.442-7.383l2.665-12.109L185.123,675.545z M220.029,493.246l11.795,12.549l-24.017,34.318
					l-0.065,0.279v0.334l-0.097,9.646l-10.052,44.125l-18.551,28.318l-0.094,0.119l-0.036,0.135l-7.865,36.949l-12.1-19.861
					l0.133-22.312l14.011-14.129l1.4-1.412l-1.346-1.498l-7.826-8.713l16.447-34.664l0.171-0.357l0.046-0.424l2.191-20.096
					l0.029-0.279l-0.037-0.311l-2.062-16.771l37.646-27.295l-0.408,0.619L220.029,493.246z M243.535,241.823l0.033-14.292
					l3.252-4.854l1.359,7.667L243.535,241.823z M231.904,256.323l-0.072,0.076l-0.058,0.079l-9.728,13.33l-0.041,0.057l-0.033,0.056
					l-17.846,29.407l-21.119,17.974l-17.099-44.731l4.6-12.37l0.577-1.551l-0.577-1.61l-4.775-13.325l-0.959-18.638l-0.015-0.281
					l-0.061-0.333l-2.386-13.096l7.788-9.758l0.774-0.969l0.227-1.278l5.509-31.018l0.155-0.875l-0.166-0.937l-1.796-10.106
					l1.908-17.423l1.316,1.049l4.525,3.608l1.052,0.837l1.083,0.96l2.166,1.918l17.328,15.351l33.868,30.003l-1.673,7.542
					l-0.145,0.654l0.316,0.58l9.514,17.49l-4.87,7.4l-0.183,0.335v0.396l0.006,19.556L231.904,256.323z M276.881,412.539
					l5.764-12.605l3.709,10.661l-5.664,10.374L276.881,412.539z"/>
			</g>
		</g>
	</g>
</g>
</svg>
