<?xml version="1.0" encoding="utf-8"?>
<!-- Generator: Adobe Illustrator 16.0.0, SVG Export Plug-In . SVG Version: 6.00 Build 0)  -->
<!DOCTYPE svg PUBLIC "-//W3C//DTD SVG 1.1//EN" "http://www.w3.org/Graphics/SVG/1.1/DTD/svg11.dtd">
<svg version="1.1" id="Layer_1" xmlns="http://www.w3.org/2000/svg" xmlns:xlink="http://www.w3.org/1999/xlink" x="0px" y="0px"
	 width="489.1px" height="844.27px" viewBox="0 0 489.1 844.27" enable-background="new 0 0 489.1 844.27" xml:space="preserve">
<g>
	<g>
		<g>
			<g>
				<path fill="#C6C8CA" d="M479.773,0.002l-13.209,16.022l-10.354,6.435l-14.757,0.028l-1.392,0.002l-1.102,0.828l-5.584,4.204
					l-2.792,2.102l-0.697,0.526l-0.306,0.248l-0.083,0.072l-0.165,0.143l-0.33,0.286l-1.321,1.144l-9.414,8.162l-49.177,0.09
					l-1.071,0.002l-0.919,0.527l-15.936,9.145l-2.01,1.153l0.006,2.301l0.018,10.205l-2.715,4.089l-4.151,0.008l-3.937,0.007
					l0.006,3.923l0.027,15.489l-11.95,7.354l-3.455,2.126l-0.216,0.132l-0.098,0.061l-0.42,0.233l-0.886,0.495l-1.771,0.988
					l-6.221,3.472l-14.953,0.027l-1.258,0.002l-1.002,0.74l-10.81,7.996l-1.543,1.142l0.003,1.906l0.019,10.661l-5.319,4.005
					l-1.503,1.131l0.004,1.867l0.034,18.668l-9.221,11.829l-11.664,10.034l-0.564,0.486l-0.325,0.654l-7.814,15.704l-8.916,12.305
					l-0.159,0.219l-0.118,0.228l-6.245,11.976l-0.503,0.964l0.116,1.068l0.63,5.819l-6.913,8.638l-4.555-1.154l-0.436-0.111
					l-0.367,0.257l-6.083,4.269l-1.47,1.033l-1.585,0.968l-3.173,1.935l-12.604,7.694l-10.395,3.601l-11.989-0.11h-0.642
					l-0.219,0.725l-8.258,22.665l-10.218,9.683l-19.409,0.195h-0.121l-0.111-0.109l-15.949,4.505l-0.37,0.07l-0.157,0.331
					l-7.561,16.674l-7.489,12.764l-17.281,14.309l-15.106,7.573l-0.134,0.066l-0.097,0.11l-9.827,11.365l-9.836,8.332l-0.264,0.214
					v0.329l0.02,6.368l-10.889,4.521l-0.036,0.016l-0.021,0.015l-18.457,10.53L1.778,390.16l18.764-9.98l18.691-10.036l11.348-4.402
					l0.361-0.17v-0.483l0.087-6.506l9.674-8.133l0.062-0.037l0.047-0.043l9.8-11.271l15.072-7.513l0.079-0.038l0.066-0.057
					l17.491-14.413l0.107-0.088l0.07-0.121l7.611-12.906l0.021-0.035l0.019-0.04l7.459-16.357l15.475-4.401l19.142,0.023
					l1.382,7.598l0.021,0.115l-0.169,0.1l6.52,11.244v8.626l-6.362,5.126l0.095,0.014l0.04,0.016l-15.05,13.571l-11.212,2.994
					l-20.478,3.793l-0.192,0.036l-0.137,0.141L92.49,351.721l-0.193,0.192l0.006,0.26l0.29,12.888l-2.69,15.221l3.32-15.124
					l-0.057-0.026v-0.043l0.347-12.646l14.903-14.872l20.332-3.762l0.035-0.004l0.027-0.007l11.396-3.039l0.148-0.04l0.116-0.103
					l15.175-13.659l6.593-5.305l0.019-0.192v-0.313v-9.116v-0.178l0.138-0.152l-6.665-11.294l-1.33-7.626l10.529-9.726l0.169-0.144
					l0.082-0.201l8.165-21.948l11.52,0.247h0.16l0.152-0.287l10.643-3.903l0.09-0.09l0.082-0.079l12.707-7.729l3.176-1.936
					l1.588-0.968l1.576-1.098l5.726-3.999l3.255,0.834l-1.395,1.824l-0.231,0.37v0.472v6.606l-3.588,9.875l-6.082,2.808
					l-0.565,0.354v0.869l-0.257,10.651l-0.37,0.321l-6.877,9.136l-0.423,0.521l-0.014,0.64l0.104,39.97l-8.814,0.025l-0.748,0.002
					l-0.52,0.521l-10.607,10.667l-0.163,0.164l-0.111,0.109l-2.342,3.957h-11.344h-0.297l-0.185,0.303l-14.249,16.886l-3.562,4.233
					l-1.781,2.116c-0.574,0.724-1.226,1.342-1.867,2.016l-7.688,7.915l7.914-7.685c0.646-0.638,1.352-1.271,1.942-1.973l1.842-2.054
					l3.683-4.188l14.535-16.289h10.316l-4.797,8.358l-6.869,8.771l-9.5,4.438l-0.455,0.223l-0.256,0.426l-8.121,13.378
					l-19.39,12.008l-0.563,0.35l-0.131,0.64l-3.636,17.695l-13.784,10.339l-0.415,0.431v0.715l-0.141,7.792l-12.562,12.884
					l-0.688,0.67l0.369,0.838l0.302,0.668l-1.983,9.609l-5.29,11.33l-0.097,0.201l0.051,0.219l3.523,14.74l-12.777,0.184H82.92
					l-0.139-0.113l-24.293,6.072l-0.312,0.043l-0.219,0.211l-17.422,18.273l-0.305,0.314l0.018,0.434l0.625,14.809l-6.311,2.012
					l-3.561,1.137l-0.444,0.141c-0.095,0.035-0.285,0.08-0.424,0.121l-0.9,0.246l-1.804,0.49l-14.424,3.934l-0.173,0.047
					l-0.111,0.119l-15.501,16.404l16.276-15.377l14.27-3.893l1.803-0.49l0.902-0.246c0.161-0.047,0.274-0.07,0.475-0.135
					l0.445-0.143l3.561-1.137l6.028-1.906l1.006,22.604v0.045l-0.048,0.039l3.078,23.539l-0.005,0.059l0.006,0.051l4.531,17.182
					l-11.011,23.34l-13.969-0.275h-0.135l-0.102,0.357l-16.476,6.883l16.817-5.055l14.327,0.373h0.463l0.2-0.674l11.465-24.406
					l0.124-0.324l-0.073-0.316l-4.495-17.443l-2.961-23.482L42.332,495.4l16.997-17.639l23.879-5.9l13.22,0.037l1.15,4.766
					l-5.162,8.852l-9.594,12.115l0.107,0.176v0.227v24.094l-7.717,9.703l-0.175,0.066l-0.098,0.076l-6.055,14.436l-0.031,0.117
					v0.131v16.713v0.143l0.01,0.129l5.996,12.797l0.62,18.838l0.634-18.99l0.003-0.135l-0.018-0.139l-5.965-12.785v-16.441
					l5.942-14.24l7.774-9.811l0.357-0.172v-0.219V498.26l9.481-11.977l-0.095-0.039l-0.038-0.043l5.287-9.117l0.113-0.221
					l-0.067-0.02l-1.145-4.48h0.074l0.284-0.393l10.859-6.16l0.835-0.473v-0.73v-15.953v-0.281l-0.305-0.264l-7.251-15.545
					l12.291-12.561l0.383-0.403v-0.573l-0.011-7.634l13.872-10.173l0.444-0.331l0.113-0.555l3.712-17.573l19.228-11.758l0.32-0.197
					l0.202-0.329l8.131-13.224l9.442-4.325l0.359-0.164l0.25-0.315l7.241-9.096l0.073-0.091l0.062-0.191l5.924-10.172h15.779h0.107
					l0.103,0.046l15.641-5.399l-0.106,0.397l-3.781,14.022l0.135,0.171v0.162l-0.075,38.534l-11.325,27.18l-0.075,0.072l-0.04,0.071
					l-6.189,24.514l-0.208,0.111v0.111v23.363v0.094l0.221,0.088l3.91,17.289l-3.625,16.381l-4.632,5.854l-2.37,2.994l-1.185,1.498
					l-0.593,0.748c-0.237,0.293-0.389,0.525-0.589,0.791l-9.038,12.359l-0.029,0.045l-0.021,0.039
					c-1.181,2.291-2.36,4.584-3.455,6.92c-1.106,2.33-2.197,4.668-3.167,7.07c1.435-2.156,2.752-4.375,4.051-6.605
					c1.3-2.205,2.517-4.455,3.733-6.705l9.08-12.275c0.187-0.244,0.39-0.543,0.56-0.74l0.6-0.746l1.2-1.492l2.4-2.982l4.797-5.965
					l0.109-0.133l0.039-0.172l3.844-16.705l0.041-0.172l-0.04-0.178l-3.729-17.387l0.063-23.158l6.101-24.306l11.139-27.247
					l-0.223-0.195v-0.217l0.41-38.575l4.146-14.077l0.631-1.89h14.863h0.422v-0.156v-9.602l7.617-7.409l0.06-0.189v-0.273v-11.159
					l3.469-3.767l1.748,7.736l-0.098,21.242v0.245l0.294,0.23l3.59,23.924l0.18,0.792l0.486,0.644l14.438,20.443l2.192,13.49
					l0.072,0.423l0.171,0.381l2.086,4.666l1.569,14.381l-4.56,7.628l-0.523,0.875l0.079,1.006l1.166,14.81l0.072,0.922l0.55,0.73
					l6.314,8.385l0.991,12.143l-4.757,6.209l-7.139,6.061l-0.699,0.594l-0.259,0.869l-3.397,11.4l-0.067,0.225l-0.03,0.223
					l-1.125,7.979l-0.037,0.268l0.008,0.26l0.582,17.035l-4.304,10.816l-0.283,0.709l0.091,0.748l1.156,9.684l0.076,0.639
					l0.326,0.541l6.291,10.439l-0.5,2.775l-4.391,0.008l-1.806,0.004l-0.802,1.607l-4.54,9.125l-0.209,0.418l-0.066,0.453
					l-2.249,15.387l-0.07,0.473l0.085,0.461l1.153,6.283l-13.503,6.256l-11.799,0.291h-0.307l-0.255-0.102l-14.302,8.945
					l-9.381,2.844l-8.021-3.656l-0.604-0.289l-0.471,0.447l-16.21,15.699l-4.053,3.924c-0.674,0.66-1.333,1.285-2.032,1.934
					l-2.06,1.93l-8.17,7.66l-12.066,7.578l-0.232,0.146l-0.1,0.252l-5.963,14.998l-14.075,10.531l-0.156,0.229v0.381l-0.079,32.287
					l-16.862,10.258l17.84-9.279l0.38-0.182v-0.414l0.003-32.285l14.116-10.377l0.165-0.133l0.077-0.213l6.006-14.926l11.938-7.426
					l0.069-0.043l0.062-0.059l8.267-7.682l2.067-1.92c0.683-0.627,1.39-1.293,2.062-1.945l4.071-3.908l15.805-15.174l7.754,3.545
					l0.339,0.156l0.361-0.111l9.88-3.018l0.127-0.039l0.115-0.072l14.196-9.08l11.728-0.133h0.226l0.21,0.066l13.251-5.729
					l0.448,2.488l-10.195,9.229l-1.156,1.057l0.266,1.531l2.879,16.52l0.049,0.283l0.101,0.256l3.96,10.123l2.703,9.67l-0.45,6.963
					l-14.521,12.955l-0.115,0.104l-0.099,0.107l-9.445,10.533l-5.646,0.012l-1.955,0.004l-0.577,1.857l-2.717,8.754l-7.978,11.746
					l-10.586,6.316l-10.976,6.777l-1.123,0.693l0.016,1.26l0.474,37.186l-10.351,20.229l-0.073,0.145l-0.035,0.121l-3.663,13.156
					l0.098,0.205v0.182l0.018,13.674l-0.074,0.359l0.145,0.273l10.851,16.145l-0.927,14.973c-0.878,2.135-1.742,4.281-2.571,6.436
					l-2.49,6.582l-0.026,0.064l-0.009,0.047l-2.012,11.166c-0.657,3.725-1.284,7.453-1.888,11.189
					c0.917-3.672,1.809-7.348,2.671-11.031l2.529-10.986l2.624-6.482c0.867-2.18,1.705-4.369,2.521-6.568l0.038-0.104l0.007-0.104
					l1.337-15.367l0.025-0.295l-0.171-0.268l-10.422-16.361l0.169-13.127l4.051-12.729l11.027-20.262l0.202-0.373l0.006-0.469
					l0.461-36.285l10.057-5.861l11.211-6.307l0.501-0.281l0.346-0.506l8.568-12.52l0.221-0.32l0.118-0.379l2.278-7.246l4.894,0.01
					h1.182l0.799-0.883l10.173-11.262l15.3-13.551l0.834-0.738l0.078-1.121l0.583-8.545l0.03-0.463l-0.124-0.455l-2.829-10.26
					l-0.037-0.129l-0.051-0.135l-3.868-9.998l-2.511-14.719l10.262-9.201l1.177-1.057l-0.281-1.566l-2.17-12.07l2.167-14.455
					l3.559-7.084l5.042,0.01l2.438,0.004l0.442-2.408l1.15-6.264l0.198-1.084l-0.569-0.955l-6.489-10.855l-0.962-8.303l4.302-10.691
					l0.231-0.578l-0.02-0.635l-0.53-17.393l1.085-7.492l3.109-10.291l6.725-5.67l0.249-0.211l0.204-0.266l5.713-7.396l0.728-0.943
					l-0.095-1.197l-1.113-14.248l-0.069-0.898l-0.546-0.73l-6.269-8.389l-0.969-12.889l4.623-7.673l0.551-0.914l-0.111-1.074
					l-1.682-15.956l-0.053-0.499l-0.207-0.469l-2.096-4.743l-2.188-13.834l-0.116-0.739l-0.437-0.623l-14.316-20.453l-3.028-22.913
					l0.243-21.42v-0.397l-0.298-0.399l-2.29-9.139l-0.961-3.797l6.715-7.879l0.045-0.067l0.031-0.163l8.939-19.462h17.063h0.288
					l0.189-0.133l23.703-26.549l0.312-0.14v-0.243v-23.415l-0.117-0.102l0.117-0.322v-0.473l0.106-27.575l16.212-13.319l0.315-0.343
					v-0.546l0.179-30.944l6.066-17.169l7.55-12.743l14.27-19.692l0.085-0.329v-0.411l0.189-13.782l3.251-4.727l0.706-0.989
					l0.023-1.205l0.027-9.081l13.046-7.419l49.654,0.091l1.52,0.003l1.165-1l10.596-9.118l1.324-1.139l0.331-0.285l0.166-0.143
					l0.025-0.021l0.62-0.463l2.8-2.093l4.484-3.35l14.576,0.027l1.182,0.001l1.021-0.628l11.979-7.385l0.581-0.359l0.445-0.537
					L486.32,5.42L479.773,0.002z M97.174,469.805h-0.015l-3.542-14.84l5.223-11.275l0.032-0.109l0.016-0.094l1.651-8.012
					l6.302,13.477l0.042,15.105L97.174,469.805z M350.736,75.52l0.011,9.594l-4.54,6.227l0.004-2.023l0.024-13.727l2.346,0.004
					l2.101,0.003L350.736,75.52z M322.765,96.775C322.814,96.745,322.769,96.773,322.765,96.775L322.765,96.775z M322.652,96.84
					l-0.011,0.007l-0.008,0.004C322.644,96.845,322.644,96.845,322.652,96.84z M232.693,225.241l0.744,6.876l-5.199-1.318
					L232.693,225.241z M220.879,252.886l0.195-0.541l3.802-10.634l0.077-0.219v-0.233v-6.364l1.931-2.406l6.781,1.736l0.883,8.163
					l0.048,0.447l0.153,0.409l2.587,6.905l-4.487,4.109l-2.39,2.188l0.431,0.547l-8.109,8.098l-8.47,0.023l0.003-9.312l6.042-2.684
					L220.879,252.886z M199.953,331.619h-14.921l1.222-1.998l9.984-9.886l9.898,0.049l1.813,0.016l0.005-1.817l0.115-41.13
					l3.828-4.733l0.26,14.721v0.416l-0.02,0.34l6.512,9.557l0.72,16.913l-1.731,6.887l-0.89,3.534l-0.411,1.517L199.953,331.619z
					 M240.707,297.06l-0.4,0.18v0.236v11.122l-7.617,7.409l-0.06,0.189v0.273v8.752h-13.675l0.16-0.381l0.893-3.408l1.785-6.998
					l0.044-0.144l-0.008-0.171l-0.712-17.468l-0.015-0.369l-0.217-0.312l-6.582-9.546l0.007-17.368l9.3,0.027l0.819,0.001
					l0.59-0.583l8.389-8.318l4.883,6.195l4.53,17.483l0.57,2.227l0.554,2.283l0.861,4.04L240.707,297.06z M306.841,232.66
					l-23.501,26.028h-17.185h-0.411l-0.17,0.454l-9.082,19.714l-6.078,7.126l-0.363-1.508l-0.584-2.323l-4.648-18.208l-0.178-0.698
					l-0.454-0.578l-4.253-5.435l3.864-3.515l1.743-1.584l-0.822-2.221l-3.225-8.703l-0.533-5.116l0.232-0.204l0.121-0.232h0.126
					h37.629h0.416l0.305-0.002l14.193-13.166l12.857-11.799V232.66z M336.541,104.601l-0.03,0.051l-7.581,12.923l-0.062,0.104
					l-0.039,0.111l-6.312,17.48l-0.321,0.19v0.199l0.293,30.604l-16.396,13.348l-0.53,0.338v0.532l0.278,27.638l-13.603,12.96
					l-13.647,13.054l-37.057,0.042l-0.81-0.209l-1.876-18.027l5.667-10.768l8.99-12.308l0.174-0.237l0.138-0.274l7.672-15.274
					l11.429-9.76l0.273-0.233l0.229-0.294l10.278-13.086l0.786-1l0.003-1.286l0.033-18.06l5.353-4l1.501-1.122l0.005-1.888
					l0.019-10.616l8.289-6.084l14.709,0.026l0.987,0.002l0.877-0.485l7.099-3.927l1.773-0.981l0.888-0.491l0.443-0.246l0.578-0.344
					l3.461-2.114l13.848-8.452l1.64-1.001l-9.412,12.911L336.541,104.601z M435.034,36.612l0.002-0.002
					C435.11,36.551,435.082,36.573,435.034,36.612z"/>
			</g>
		</g>
	</g>
</g>
</svg>
